<?xml version="1.0" encoding="utf-8"?>
<svg viewBox="0 0 500 500" width="500" height="500" xmlns="http://www.w3.org/2000/svg">
  <path style="stroke-width: 0px; stroke-miterlimit: 1; stroke: rgb(255, 255, 255);" d="M 334.962 241.524 L 381.445 214.87 L 381.759 290.663 L 417.105 270.843 L 360.219 389.707 L 299.648 336.708 L 335.015 316.876 Z M 453.817 365.153 L 453.817 145.399 L 263.652 255.67 L 264.065 474.706 Z">
    <title>left</title>
  </path>
  <path d="M 108.661 212.319 L 147.758 287.393 L 182.089 255.923 L 183.759 257.913 L 183.759 256.892 L 216.986 275.345 L 216.442 426.77 L 183.759 408.075 L 183.759 297.76 L 147.79 330.731 L 147.628 330.537 L 138.708 338.536 L 123.276 305.479 L 108.284 276.692 L 107.974 363.103 L 75.291 344.408 L 75.291 193.225 L 108.518 211.678 L 108.515 212.387 Z M 51.751 143.846 L 51.751 365.153 L 244.067 476.186 L 243.648 254.155 Z" style="">
    <title>right</title>
  </path>
  <path d="M 224.438 59.937 L 237.786 52.112 L 237.786 83.056 L 238.077 83.56 L 237.786 83.729 L 237.786 84.266 C 237.785 84.208 237.693 84.077 237.522 83.881 L 169.1 123.384 L 237.564 162.912 L 237.443 163.122 C 237.656 162.886 237.77 162.73 237.772 162.665 L 237.772 194.818 L 223.855 186.659 L 223.838 186.688 L 136.88 136.482 L 137.22 135.892 L 137.22 110.157 C 137.353 110.277 137.696 110.71 138.195 111.379 L 137.392 109.989 L 224.35 59.784 Z M 283.699 60.218 L 370.656 110.422 L 369.853 111.813 C 370.353 111.143 370.696 110.71 370.828 110.591 L 370.828 136.326 L 371.169 136.916 L 284.21 187.121 L 284.194 187.092 L 270.277 195.251 L 270.277 163.098 C 270.278 163.163 270.393 163.32 270.606 163.556 L 270.484 163.345 L 338.949 123.818 L 270.526 84.314 C 270.355 84.51 270.264 84.642 270.262 84.699 L 270.262 84.162 L 269.971 83.994 L 270.262 83.489 L 270.262 52.545 L 283.611 60.371 Z M 444.534 127.661 L 252.784 16.953 L 62.378 126.885 L 254.961 237.59 Z" style="">
    <title>top</title>
  </path>
</svg>