<svg width="1600" height="1600" xmlns="http://www.w3.org/2000/svg">
 <g>
  <title>Layer 1</title>
  <g id="svg_3">
   <path id="svg_1" d="m263.04748,1068.84143l0,-508.35303l149.5156,0l149.5156,186.8945l149.5156,-186.8945l149.5156,0l0,508.35303l-149.5156,0l0,-291.55541l-149.5156,186.8945l-149.5156,-186.8945l0,291.55541l-149.5156,0z"/>
   <path id="svg_2" d="m1164.38321,1081.97532l-225.87718,-248.4649l150.58479,0l0,-263.52338l150.58479,0l0,263.52338l150.58479,0l-225.87718,248.4649l-0.00002,0l0.00001,0z"/>
   <g transform="matrix(-3.51802, 0, 0, -3.51802, 3260.18, 1168.49)" id="svg_7">
    <rect transform="rotate(90, 546.771, 227.827)" id="svg_4" height="103" width="25" y="176.32676" x="534.27129"/>
    <rect id="svg_5" height="275" width="25" y="-34.67323" x="495.27129"/>
    <rect transform="rotate(90, 547.771, -22.1732)" id="svg_6" height="103" width="25" y="-73.67324" x="535.27129"/>
   </g>
   <g id="svg_11">
    <rect transform="matrix(0, 3.51802, -3.51802, 0, 1298.89, 642.552)" id="svg_8" height="103" width="25" y="239.91295" x="160.74558"/>
    <rect id="svg_9" height="967.45382" width="87.95036" y="328.55401" x="92.51425"/>
    <rect transform="matrix(0, 3.51802, -3.51802, 0, 422.901, -240.47)" id="svg_10" height="103" width="25" y="-10.08705" x="161.74558"/>
   </g>
  </g>
 </g>

</svg>