<svg width="1024" height="611" xmlns="http://www.w3.org/2000/svg">

 <g>
  <title>Layer 1</title>
  <rect transform="rotate(90, 876.239, 67.8497) matrix(-1.90798, 0, 0, -1.90798, 1151.36, 493.055)" id="svg_4" height="103" width="25" y="254.99999" x="465.5"/>
  <rect transform="rotate(90, 874.331, 544.844) matrix(-1.90798, 0, 0, -1.90798, 1881.26, -231.031)" id="svg_6" height="103" width="25" y="4.99999" x="466.5"/>
  <text xml:space="preserve" text-anchor="start" font-family="'Poppins SemiBold'" font-size="125" fill="#000000" id="svg_13" y="409.50999" x="161.96646">embedder.</text>
  <text xml:space="preserve" text-anchor="start" font-family="'Poppins SemiBold'" font-size="125" fill="#000000" id="svg_14" y="290.83194" x="161.96646">markdown</text>
  <g id="svg_18">
   <rect transform="matrix(0, 1.44639, -1.44639, 0, 738.994, 284.325)" id="svg_8" height="103" width="25" y="365.40093" x="127.35306"/>
   <rect id="svg_9" height="397.75814" width="36.15983" y="106.929" x="61.50182"/>
   <rect transform="matrix(0, -1.44639, 1.44639, 0, 1341.51, 162.876)" id="svg_10" height="103" width="25" y="-883.96219" x="13.6803"/>
  </g>
  <g transform="rotate(180, 884.786, 307.141)" id="svg_22">
   <rect transform="matrix(0, 1.44639, -1.44639, 0, 738.994, 284.325)" id="svg_19" height="103" width="25" y="-151.79707" x="128.27501"/>
   <rect id="svg_20" height="397.75814" width="36.15983" y="108.26246" x="809.57353"/>
   <rect transform="matrix(0, -1.44639, 1.44639, 0, 1341.51, 162.876)" id="svg_21" height="103" width="25" y="-366.76419" x="12.75835"/>
  </g>
 </g>
</svg>